#!OML:ASF F:\twosubjects\two\Thursday\Session 1\justin.ASF
:FULLY-SPECIFIED
:DEGREES
661
root 10.8134 17.8139 -12.032 0.864737 -49.4297 4.68402
lowerback -1.85747 2.05518 -3.18349
upperback -0.303475 2.79825 0.54535
thorax 0.549424 1.39368 2.40173
lowerneck -21.9845 7.03559 -3.08341
upperneck 20.5559 11.5816 -3.12138
head 10.2147 4.65791 1.12073
rclavicle 1.13307e-014 3.97569e-016
rhumerus -29.6537 -16.5851 -78.0741
rradius 25.5648
rwrist 2.61466
rhand -15.5415 12.6389
rfingers 7.12502
rthumb 10.6425 -17.0716
lclavicle 1.13307e-014 3.97569e-016
lhumerus -30.3417 13.1708 82.2768
lradius 25.2611
lwrist -16.3913
lhand -1.75373 39.9576
lfingers 7.12502
lthumb 23.9096 68.4891
rfemur -4.4351 -3.01416 6.57572
rtibia 19.6
rfoot -14.402 -16.9072
rtoes -16.901
lfemur -6.44199 10.4285 -26.0251
ltibia 16.5727
lfoot -13.3159 -0.866415
ltoes -8.54911
662
root 10.8171 17.8146 -12.0307 0.976513 -49.5081 4.55631
lowerback -1.87812 2.05572 -3.06143
upperback -0.330864 2.79661 0.571979
thorax 0.537513 1.39358 2.36097
lowerneck -21.9692 7.07937 -3.08087
upperneck 20.7004 11.6338 -3.04756
head 10.2585 4.68465 1.15658
rclavicle -2.25621e-014 7.95139e-016
rhumerus -29.6268 -16.4567 -78.1587
rradius 25.6713
rwrist 2.39427
rhand -15.7353 12.8251
rfingers 7.12502
rthumb 10.4555 -16.8949
lclavicle -2.25621e-014 7.95139e-016
lhumerus -30.3038 12.6779 82.4587
lradius 25.4724
lwrist -15.8561
lhand -1.94559 40.0152
lfingers 7.12502
lthumb 23.7256 68.5707
rfemur -4.46256 -3.07325 6.64787
rtibia 19.5429
rfoot -14.3541 -16.7336
rtoes -16.7372
lfemur -6.52333 10.3708 -25.9512
ltibia 16.6848
lfoot -13.5248 -0.803768
ltoes -9.39052
663
root 10.8188 17.8165 -12.0359 1.06463 -49.5178 4.42855
lowerback -1.86967 2.05615 -2.97754
upperback -0.350125 2.79497 0.570978
thorax 0.517197 1.39343 2.3122
lowerneck -21.8244 7.08607 -2.89408
upperneck 20.7194 11.5922 -3.11059
head 10.2547 4.67459 1.09531
rclavicle 5.50634e-014 1.19271e-014
rhumerus -29.6019 -16.2856 -78.3462
rradius 25.7608
rwrist 1.99498
rhand -15.9089 13.1553
rfingers 7.12502
rthumb 10.2881 -16.5731
lclavicle 5.50634e-014 1.19271e-014
lhumerus -30.2344 12.416 82.5241
lradius 25.6765
lwrist -15.7035
lhand -1.81588 40.2022
lfingers 7.12502
lthumb 23.85 68.7415
rfemur -4.44257 -3.06885 6.76574
rtibia 19.4474
rfoot -14.2312 -16.7913
rtoes -17.1657
lfemur -6.59884 10.4198 -25.8396
ltibia 16.8167
lfoot -13.5814 -0.834752
ltoes -9.76167
664
root 10.819 17.8157 -12.0364 1.15974 -49.484 4.2957
lowerback -1.94643 2.10319 -2.84778
upperback -0.34489 2.85783 0.514512
thorax 0.57092 1.42404 2.18631
lowerneck -21.5858 7.019 -2.70882
upperneck 20.6188 11.4036 -3.05102
head 10.1808 4.62155 1.04771
rclavicle -1.47598e-014 -1.23246e-014
rhumerus -29.6143 -16.425 -78.5066
rradius 25.9176
rwrist 1.80898
rhand -15.8085 13.0542
rfingers 7.12502
rthumb 10.3848 -16.6694
lclavicle -1.47598e-014 -1.23246e-014
lhumerus -30.0848 11.7735 82.6672
lradius 25.8734
lwrist -15.5252
lhand -1.54108 40.4132
lfingers 7.12502
lthumb 24.1135 68.9179
rfemur -4.36779 -3.11247 6.86477
rtibia 19.3529
rfoot -14.2065 -16.8555
rtoes -17.4659
lfemur -6.5995 10.4506 -25.745
ltibia 16.8397
lfoot -13.4582 -0.863956
ltoes -9.65225
665
root 10.819 17.8143 -12.0337 1.2197 -49.4748 4.16156
lowerback -1.8985 2.12894 -2.73623
upperback -0.390802 2.88792 0.505336
thorax 0.501241 1.44081 2.1119
lowerneck -21.4437 6.97775 -2.65401
upperneck 20.6677 11.2922 -2.91966
head 10.1658 4.59286 1.06366
rclavicle -8.69683e-016 9.93923e-015
rhumerus -29.6969 -16.6614 -78.5071
rradius 26.0589
rwrist 1.93306
rhand -15.7 12.8319
rfingers 7.12502
rthumb 10.4896 -16.8864
lclavicle -8.69683e-016 9.93923e-015
lhumerus -30.0857 11.4969 82.7361
lradius 26.049
lwrist -15.6085
lhand -1.76205 40.1978
lfingers 7.12502
lthumb 23.9016 68.7304
rfemur -4.26148 -3.20183 6.94813
rtibia 19.2487
rfoot -14.1535 -16.8352
rtoes -17.8701
lfemur -6.48025 10.4146 -25.6551
ltibia 16.7243
lfoot -13.4563 -0.879445
ltoes -9.55776
666
root 10.821 17.8197 -12.0378 1.12337 -49.5074 4.3277
lowerback -1.83886 2.12679 -2.85303
upperback -0.473698 2.88444 0.489311
thorax 0.378062 1.44179 2.1559
lowerneck -21.4221 6.986 -2.77223
upperneck 20.8465 11.3011 -2.71061
head 10.2039 4.60656 1.15833
rclavicle -1.11046e-013 -6.75868e-015
rhumerus -29.726 -16.5716 -78.5379
rradius 26.2001
rwrist 1.86651
rhand -15.5537 13.0118
rfingers 7.12502
rthumb 10.6306 -16.6993
lclavicle -1.11046e-013 -6.75868e-015
lhumerus -30.1144 11.512 82.7614
lradius 26.2197
lwrist -15.6829
lhand -2.42411 39.9828
lfingers 7.12502
lthumb 23.2666 68.5971
rfemur -4.30089 -3.39605 6.82523
rtibia 19.1525
rfoot -13.9984 -16.6237
rtoes -18.3118
lfemur -6.45882 10.3923 -25.7732
ltibia 16.5853
lfoot -13.437 -0.905383
ltoes -9.20823
667
root 10.8237 17.8288 -12.0412 0.999871 -49.5328 4.54503
lowerback -1.88859 2.10463 -2.99829
upperback -0.51027 2.85856 0.484041
thorax 0.363009 1.42947 2.23238
lowerneck -21.2821 7.00197 -2.89994
upperneck 20.8366 11.331 -2.60978
head 10.1599 4.62667 1.21057
rclavicle -1.17283e-014 5.96354e-015
rhumerus -29.6537 -16.1734 -78.6731
rradius 26.3997
rwrist 1.72413
rhand -15.1532 13.0194
rfingers 7.12502
rthumb 11.017 -16.6714
lclavicle -1.17283e-014 5.96354e-015
lhumerus -30.0596 11.0642 82.9814
lradius 26.408
lwrist -15.1744
lhand -2.69118 40.348
lfingers 7.12502
lthumb 23.0103 68.9945
rfemur -4.38682 -3.68445 6.6499
rtibia 19.1377
rfoot -13.9063 -16.2805
rtoes -18.2683
lfemur -6.45854 10.4127 -25.9289
ltibia 16.4545
lfoot -13.4274 -0.951803
ltoes -9.431
668
root 10.8261 17.8314 -12.0423 1.12479 -49.5765 4.45067
lowerback -1.95721 2.03642 -2.96799
upperback -0.538416 2.76828 0.561444
thorax 0.375616 1.38451 2.29553
lowerneck -21.1455 7.03092 -3.0027
upperneck 20.7434 11.3795 -2.56855
head 10.0921 4.65357 1.23902
rclavicle -7.33018e-014 -1.63003e-014
rhumerus -29.5139 -15.7528 -78.8454
rradius 26.6226
rwrist 1.72207
rhand -14.8902 12.5588
rfingers 7.12502
rthumb 11.2707 -17.1184
lclavicle -7.33018e-014 -1.63003e-014
lhumerus -30.0195 10.7393 83.1719
lradius 26.6241
lwrist -14.5939
lhand -2.48366 40.4214
lfingers 7.12502
lthumb 23.2094 69.0429
rfemur -4.50828 -3.77939 6.70681
rtibia 19.2053
rfoot -13.909 -16.1298
rtoes -17.8827
lfemur -6.46542 10.4912 -25.8723
ltibia 16.3143
lfoot -13.4575 -0.997189
ltoes -9.71024
669
root 10.8296 17.8263 -12.0442 1.09654 -49.7074 4.61558
lowerback -2.06063 2.01576 -3.08427
upperback -0.55182 2.74615 0.545412
thorax 0.416391 1.37286 2.34761
lowerneck -21.156 7.0404 -3.05361
upperneck 20.6924 11.3768 -2.45495
head 10.0641 4.66539 1.284
rclavicle 1.40715e-013 -1.47101e-014
rhumerus -29.3271 -15.429 -79.1045
rradius 26.7942
rwrist 1.39405
rhand -15.0517 12.5767
rfingers 7.12502
rthumb 11.1149 -17.1089
lclavicle 1.40715e-013 -1.47101e-014
lhumerus -29.8993 10.6446 83.232
lradius 26.8144
lwrist -14.3765
lhand -2.8515 39.8328
lfingers 7.12502
lthumb 22.8565 68.4984
rfemur -4.70101 -3.75075 6.57248
rtibia 19.2872
rfoot -13.9255 -16.0437
rtoes -17.5901
lfemur -6.5745 10.5895 -26.0231
ltibia 16.2878
lfoot -13.398 -0.937033
ltoes -9.41421
670
root 10.8322 17.8203 -12.0444 0.863786 -49.793 4.89031
lowerback -2.05522 2.03628 -3.22593
upperback -0.51888 2.77723 0.474696
thorax 0.441943 1.38746 2.35539
lowerneck -21.1936 7.04485 -2.99228
upperneck 20.6644 11.3587 -2.43637
head 10.0629 4.66501 1.2792
rclavicle -7.1811e-015 -1.19271e-014
rhumerus -29.1264 -15.2301 -79.3308
rradius 26.8068
rwrist 1.00299
rhand -15.2002 13.1511
rfingers 7.12502
rthumb 10.9716 -16.5422
lclavicle -7.1811e-015 -1.19271e-014
lhumerus -29.7317 10.4912 83.2799
lradius 26.9884
lwrist -14.3761
lhand -3.1981 39.6209
lfingers 7.12502
lthumb 22.5238 68.3272
rfemur -4.73417 -3.68202 6.34625
rtibia 19.388
rfoot -14.0482 -15.9877
rtoes -17.3426
lfemur -6.61572 10.6874 -26.2308
ltibia 16.4215
lfoot -13.2383 -0.848438
ltoes -8.92222
671
root 10.8335 17.8158 -12.0441 0.807832 -49.8009 4.78737
lowerback -1.91853 2.05252 -3.1252
upperback -0.487264 2.7928 0.489217
thorax 0.400986 1.39568 2.30939
lowerneck -21.1674 7.04337 -2.95712
upperneck 20.687 11.3441 -2.42962
head 10.0678 4.66147 1.27365
rclavicle 3.28989e-014 -8.34896e-015
rhumerus -29.0482 -15.169 -79.4423
rradius 26.8914
rwrist 0.92185
rhand -15.1725 13.0909
rfingers 7.12502
rthumb 10.9984 -16.601
lclavicle 3.28989e-014 -8.34896e-015
lhumerus -29.613 10.2868 83.3463
lradius 27.1537
lwrist -14.376
lhand -2.60753 39.7372
lfingers 7.12502
lthumb 23.0906 68.3736
rfemur -4.65939 -3.57827 6.41972
rtibia 19.5487
rfoot -14.1601 -16.0707
rtoes -17.4187
lfemur -6.5338 10.7288 -26.1336
ltibia 16.5552
lfoot -13.1466 -0.796641
ltoes -8.7546
672
root 10.8346 17.8142 -12.046 0.940804 -49.9272 4.62264
lowerback -1.92835 2.07843 -3.03253
upperback -0.499604 2.82544 0.532702
thorax 0.394075 1.41232 2.30282
lowerneck -21.2176 7.04323 -3.03651
upperneck 20.8032 11.3366 -2.25766
head 10.1013 4.66746 1.34859
rclavicle -1.17283e-014 2.78299e-015
rhumerus -28.9803 -15.1204 -79.5541
rradius 27.0278
rwrist 0.873337
rhand -15.2038 12.9526
rfingers 7.12502
rthumb 10.9682 -16.7409
lclavicle -1.17283e-014 2.78299e-015
lhumerus -29.5382 10.078 83.4298
lradius 27.3436
lwrist -14.3431
lhand -2.30475 39.6934
lfingers 7.12502
lthumb 23.3811 68.2932
rfemur -4.78052 -3.41261 6.53962
rtibia 19.7143
rfoot -14.3003 -16.0516
rtoes -16.9904
lfemur -6.59881 10.7566 -26.0216
ltibia 16.6463
lfoot -13.1753 -0.719059
ltoes -8.95222
673
root 10.8364 17.8129 -12.0505 0.934161 -50.201 4.84135
lowerback -2.1119 2.11716 -3.23069
upperback -0.534453 2.88644 0.532314
thorax 0.447424 1.44222 2.42103
lowerneck -21.1898 7.04952 -3.13098
upperneck 20.7953 11.3519 -2.17282
head 10.0815 4.67892 1.39258
rclavicle -4.92737e-014 -7.95139e-015
rhumerus -28.8288 -14.8463 -79.6997
rradius 27.1436
rwrist 0.592771
rhand -15.1955 13.3255
rfingers 7.12502
rthumb 10.9762 -16.3676
lclavicle -4.92737e-014 -7.95139e-015
lhumerus -29.4675 9.96027 83.5351
lradius 27.5847
lwrist -14.2763
lhand -2.34542 39.7969
lfingers 7.12502
lthumb 23.3421 68.4016
rfemur -5.10568 -3.23162 6.37659
rtibia 19.8399
rfoot -14.436 -15.9019
rtoes -16.6916
lfemur -6.84061 10.9057 -26.215
ltibia 16.7261
lfoot -13.2632 -0.654965
ltoes -9.32613
674
root 10.8375 17.8106 -12.0537 0.790542 -50.422 5.09088
lowerback -2.15358 2.1708 -3.44387
upperback -0.578211 2.96319 0.525632
thorax 0.410243 1.48179 2.53522
lowerneck -21.0257 7.01393 -3.14885
upperneck 20.7056 11.2972 -2.18897
head 10.0201 4.65792 1.37258
rclavicle -4.57702e-014 7.95139e-016
rhumerus -28.8272 -14.5445 -79.7943
rradius 27.3848
rwrist 0.470781
rhand -15.0658 13.4341
rfingers 7.12502
rthumb 11.1013 -16.2523
lclavicle -4.57702e-014 7.95139e-016
lhumerus -29.4404 9.87779 83.6312
lradius 27.7835
lwrist -14.2504
lhand -1.87868 39.7857
lfingers 7.12502
lthumb 23.7898 68.3329
rfemur -5.27938 -3.12194 6.20516
rtibia 19.9021
rfoot -14.4082 -15.8302
rtoes -17.0889
lfemur -6.93693 11.1124 -26.3953
ltibia 16.7863
lfoot -13.3935 -0.700822
ltoes -9.30877
